<mxfile host="Electron" modified="2024-05-15T08:28:41.168Z" agent="Mozilla/5.0 (X11; Linux x86_64) AppleWebKit/537.36 (KHTML, like Gecko) draw.io/24.1.0 Chrome/122.0.6261.156 Electron/29.3.0 Safari/537.36" etag="4XfmhkICf8rZhkeMpSlX" version="24.1.0" type="device">
  <diagram name="Page-1" id="LkAHPeQTFaS5iEPYdIYg">
    <mxGraphModel dx="986" dy="594" grid="1" gridSize="10" guides="0" tooltips="1" connect="0" arrows="0" fold="1" page="1" pageScale="1" pageWidth="850" pageHeight="1100" math="0" shadow="0">
      <root>
        <mxCell id="0" />
        <mxCell id="1" parent="0" />
        <mxCell id="2R8KSTuBLpNPrHgYCFlh-2" value="RIAA" style="rounded=0;whiteSpace=wrap;html=1;" parent="1" vertex="1">
          <mxGeometry x="150" y="200" width="80" height="60" as="geometry" />
        </mxCell>
        <mxCell id="2R8KSTuBLpNPrHgYCFlh-4" value="Preamplifier" style="rounded=0;whiteSpace=wrap;html=1;" parent="1" vertex="1">
          <mxGeometry x="300" y="230" width="70" height="60" as="geometry" />
        </mxCell>
        <mxCell id="2R8KSTuBLpNPrHgYCFlh-5" value="" style="endArrow=none;html=1;rounded=0;" parent="1" edge="1">
          <mxGeometry width="50" height="50" relative="1" as="geometry">
            <mxPoint x="47" y="226" as="sourcePoint" />
            <mxPoint x="87" y="225.5" as="targetPoint" />
          </mxGeometry>
        </mxCell>
        <mxCell id="2R8KSTuBLpNPrHgYCFlh-6" value="&lt;div&gt;Phono&lt;/div&gt;" style="text;html=1;align=center;verticalAlign=middle;resizable=0;points=[];autosize=1;strokeColor=none;fillColor=none;" parent="1" vertex="1">
          <mxGeometry x="37" y="200" width="60" height="30" as="geometry" />
        </mxCell>
        <mxCell id="2R8KSTuBLpNPrHgYCFlh-9" style="edgeStyle=orthogonalEdgeStyle;rounded=0;orthogonalLoop=1;jettySize=auto;html=1;exitX=1;exitY=0.5;exitDx=0;exitDy=0;entryX=0;entryY=0.5;entryDx=0;entryDy=0;" parent="1" source="2R8KSTuBLpNPrHgYCFlh-10" target="2R8KSTuBLpNPrHgYCFlh-13" edge="1">
          <mxGeometry relative="1" as="geometry" />
        </mxCell>
        <mxCell id="2R8KSTuBLpNPrHgYCFlh-10" value="Volume&lt;br&gt;Control" style="rounded=0;whiteSpace=wrap;html=1;" parent="1" vertex="1">
          <mxGeometry x="495" y="230" width="80" height="60" as="geometry" />
        </mxCell>
        <mxCell id="2R8KSTuBLpNPrHgYCFlh-11" style="edgeStyle=orthogonalEdgeStyle;rounded=0;orthogonalLoop=1;jettySize=auto;html=1;exitX=1;exitY=0.5;exitDx=0;exitDy=0;entryX=0;entryY=0.5;entryDx=0;entryDy=0;" parent="1" source="2R8KSTuBLpNPrHgYCFlh-12" target="2R8KSTuBLpNPrHgYCFlh-10" edge="1">
          <mxGeometry relative="1" as="geometry" />
        </mxCell>
        <mxCell id="2R8KSTuBLpNPrHgYCFlh-12" value="Equalizer" style="rounded=0;whiteSpace=wrap;html=1;" parent="1" vertex="1">
          <mxGeometry x="400" y="230" width="80" height="60" as="geometry" />
        </mxCell>
        <mxCell id="2R8KSTuBLpNPrHgYCFlh-13" value="Power Amplifier" style="rounded=0;whiteSpace=wrap;html=1;" parent="1" vertex="1">
          <mxGeometry x="590" y="230" width="80" height="60" as="geometry" />
        </mxCell>
        <mxCell id="2R8KSTuBLpNPrHgYCFlh-14" value="" style="pointerEvents=1;verticalLabelPosition=bottom;shadow=0;dashed=0;align=center;html=1;verticalAlign=top;shape=mxgraph.electrical.electro-mechanical.loudspeaker;" parent="1" vertex="1">
          <mxGeometry x="680" y="235" width="25" height="50" as="geometry" />
        </mxCell>
        <mxCell id="2R8KSTuBLpNPrHgYCFlh-15" value="" style="endArrow=none;html=1;rounded=0;exitX=0;exitY=0.6;exitDx=0;exitDy=0;exitPerimeter=0;entryX=0;entryY=0.4;entryDx=0;entryDy=0;entryPerimeter=0;" parent="1" source="2R8KSTuBLpNPrHgYCFlh-14" target="2R8KSTuBLpNPrHgYCFlh-14" edge="1">
          <mxGeometry width="50" height="50" relative="1" as="geometry">
            <mxPoint x="850" y="360" as="sourcePoint" />
            <mxPoint x="900" y="310" as="targetPoint" />
          </mxGeometry>
        </mxCell>
        <mxCell id="2R8KSTuBLpNPrHgYCFlh-16" value="" style="endArrow=none;html=1;rounded=0;entryX=1;entryY=0.5;entryDx=0;entryDy=0;exitX=-0.04;exitY=0.5;exitDx=0;exitDy=0;exitPerimeter=0;" parent="1" source="2R8KSTuBLpNPrHgYCFlh-14" target="2R8KSTuBLpNPrHgYCFlh-13" edge="1">
          <mxGeometry width="50" height="50" relative="1" as="geometry">
            <mxPoint x="850" y="360" as="sourcePoint" />
            <mxPoint x="900" y="310" as="targetPoint" />
          </mxGeometry>
        </mxCell>
        <mxCell id="2R8KSTuBLpNPrHgYCFlh-18" value="" style="ellipse;whiteSpace=wrap;html=1;aspect=fixed;" parent="1" vertex="1">
          <mxGeometry x="87" y="220" width="10" height="10" as="geometry" />
        </mxCell>
        <mxCell id="QWUb5QfKtOaW_hWz9YAt-6" value="" style="endArrow=none;html=1;rounded=0;" parent="1" source="2R8KSTuBLpNPrHgYCFlh-18" edge="1">
          <mxGeometry width="50" height="50" relative="1" as="geometry">
            <mxPoint x="137" y="270" as="sourcePoint" />
            <mxPoint x="117" y="210" as="targetPoint" />
          </mxGeometry>
        </mxCell>
        <mxCell id="QWUb5QfKtOaW_hWz9YAt-8" value="" style="endArrow=none;html=1;rounded=0;" parent="1" edge="1">
          <mxGeometry width="50" height="50" relative="1" as="geometry">
            <mxPoint x="47" y="306" as="sourcePoint" />
            <mxPoint x="87" y="305.5" as="targetPoint" />
          </mxGeometry>
        </mxCell>
        <mxCell id="QWUb5QfKtOaW_hWz9YAt-9" value="" style="ellipse;whiteSpace=wrap;html=1;aspect=fixed;" parent="1" vertex="1">
          <mxGeometry x="87" y="300" width="10" height="10" as="geometry" />
        </mxCell>
        <mxCell id="QWUb5QfKtOaW_hWz9YAt-10" value="" style="endArrow=none;html=1;rounded=0;" parent="1" source="QWUb5QfKtOaW_hWz9YAt-9" edge="1">
          <mxGeometry width="50" height="50" relative="1" as="geometry">
            <mxPoint x="137" y="350" as="sourcePoint" />
            <mxPoint x="117" y="290" as="targetPoint" />
          </mxGeometry>
        </mxCell>
        <mxCell id="QWUb5QfKtOaW_hWz9YAt-11" value="" style="endArrow=none;html=1;rounded=0;" parent="1" edge="1" target="2R8KSTuBLpNPrHgYCFlh-4">
          <mxGeometry width="50" height="50" relative="1" as="geometry">
            <mxPoint x="120" y="306" as="sourcePoint" />
            <mxPoint x="290" y="260" as="targetPoint" />
            <Array as="points">
              <mxPoint x="260" y="306" />
              <mxPoint x="260" y="260" />
            </Array>
          </mxGeometry>
        </mxCell>
        <mxCell id="QWUb5QfKtOaW_hWz9YAt-12" value="Line" style="text;html=1;align=center;verticalAlign=middle;resizable=0;points=[];autosize=1;strokeColor=none;fillColor=none;" parent="1" vertex="1">
          <mxGeometry x="37" y="280" width="50" height="30" as="geometry" />
        </mxCell>
        <mxCell id="juTdCH5u31A_lcpl1dgE-1" value="" style="endArrow=classic;html=1;rounded=0;entryX=-0.012;entryY=0.5;entryDx=0;entryDy=0;entryPerimeter=0;" edge="1" parent="1" target="2R8KSTuBLpNPrHgYCFlh-12">
          <mxGeometry width="50" height="50" relative="1" as="geometry">
            <mxPoint x="370" y="260" as="sourcePoint" />
            <mxPoint x="400" y="270" as="targetPoint" />
          </mxGeometry>
        </mxCell>
        <mxCell id="juTdCH5u31A_lcpl1dgE-2" value="" style="endArrow=none;html=1;rounded=0;entryX=-0.004;entryY=0.436;entryDx=0;entryDy=0;entryPerimeter=0;" edge="1" parent="1" target="2R8KSTuBLpNPrHgYCFlh-2">
          <mxGeometry width="50" height="50" relative="1" as="geometry">
            <mxPoint x="120" y="226" as="sourcePoint" />
            <mxPoint x="280" y="260" as="targetPoint" />
          </mxGeometry>
        </mxCell>
        <mxCell id="juTdCH5u31A_lcpl1dgE-3" value="" style="endArrow=classic;html=1;rounded=0;exitX=1.008;exitY=0.411;exitDx=0;exitDy=0;exitPerimeter=0;" edge="1" parent="1" source="2R8KSTuBLpNPrHgYCFlh-2" target="2R8KSTuBLpNPrHgYCFlh-4">
          <mxGeometry width="50" height="50" relative="1" as="geometry">
            <mxPoint x="290" y="300" as="sourcePoint" />
            <mxPoint x="340" y="250" as="targetPoint" />
            <Array as="points">
              <mxPoint x="260" y="225" />
              <mxPoint x="260" y="260" />
            </Array>
          </mxGeometry>
        </mxCell>
      </root>
    </mxGraphModel>
  </diagram>
</mxfile>
